<mxfile host="app.diagrams.net" modified="2024-07-19T01:21:12.130Z" agent="Mozilla/5.0 (Macintosh; Intel Mac OS X 10_15_7) AppleWebKit/537.36 (KHTML, like Gecko) Chrome/126.0.0.0 Safari/537.36" version="24.7.1" etag="kdNeh_GGHRY3d_o6naZK" type="github">
  <diagram name="第 1 页" id="e43HvBoYKzY9-AGukDTQ">
    <mxGraphModel>
      <root>
        <mxCell id="0" />
        <mxCell id="1" parent="0" />
      </root>
    </mxGraphModel>
  </diagram>
</mxfile>
